<svg id="Слой_2" data-name="Слой 2" xmlns="http://www.w3.org/2000/svg" viewBox="0 0 2498.8 2855.7"><defs><style>.cls-1{fill:#fff;fill-rule:evenodd;}</style></defs><path class="cls-1" d="M2206.09-794.67c161.66,0,292.71,131,292.71,292.7V2061l-307-271.3-169-159.44L1836,1466.09l76.15,264.15H292.77C130.45,1729.62-.62,1597.53,0,1435.21c0-1.6,0-3.21.06-4.82V-500.77C-.6-662.43,129.92-794,291.58-794.67H2206.09ZM1655.18,1069.86A521.13,521.13,0,0,0,2091.86,853.3,1909.7,1909.7,0,0,0,1886,20.39a713.88,713.88,0,0,0-401-149.92l-20.22,22.6a959,959,0,0,1,357,182.06A1145.86,1145.86,0,0,0,1392.21-61.71a1167.57,1167.57,0,0,0-289.14,0h-23.79a1102.83,1102.83,0,0,0-324.84,100C700.9,62,670,79.88,670,79.88a952,952,0,0,1,374.81-191.57l-14.28-17.84a713.91,713.91,0,0,0-401,149.92A1909.69,1909.69,0,0,0,423.66,853.3a517.58,517.58,0,0,0,435.49,216.56s53.54-64.25,96.38-119a442.64,442.64,0,0,1-249.87-169l39.26,23.8h6a814,814,0,0,0,117.8,65.44,1202.69,1202.69,0,0,0,209.42,60.69,1010.42,1010.42,0,0,0,370.05,0,991.72,991.72,0,0,0,207-60.69,800.34,800.34,0,0,0,164.2-84.48,447.4,447.4,0,0,1-258.2,170.15C1604,1009.18,1655.18,1069.86,1655.18,1069.86ZM991.23,403.53a152.31,152.31,0,0,0-146.37,158v.23A153.5,153.5,0,0,0,991.23,720a152.31,152.31,0,0,0,145.16-158.26A151.12,151.12,0,0,0,992.7,403.59Zm521.16,0a152.3,152.3,0,0,0-146.36,158v.23A153.49,153.49,0,0,0,1512.39,720a158.26,158.26,0,0,0,0-316.51Z" transform="translate(0 794.67)"/></svg>