<svg id="Слой_1" data-name="Слой 1" xmlns="http://www.w3.org/2000/svg" viewBox="0 0 2498.8 1144"><defs><style>.cls-1{fill:#fff;}</style></defs><path class="cls-1" d="M2342.6,338.2c0,100.5-81.4,181.9-181.9,182s-180.8-81.5-180.8-182,81.5-182,182-182,182,81.5,182,182ZM2159.5,0c-186.1-.4-337.3,149.9-338.2,335.9L1610.4,638.4a210.11,210.11,0,0,0-25.7-1.1A256,256,0,0,0,1455.3,673L500,289A252.63,252.63,0,0,0,253.3,90.3C113.5,90.7.3,203.9,0,343.7c.3,139.8,113.5,253,253.3,253.4a256,256,0,0,0,129.4-35.7L1338,945.3A252.63,252.63,0,0,0,1584.7,1144c130.6,0,238.9-100.4,251.1-227.7l324.8-237.7c186.6.1,338-151.1,338.2-337.7v-.5c.1-186.6-151.1-338-337.7-338.2h-.5Zm0,111.6c125.1.1,226.5,101.5,226.6,226.6-.1,125.1-101.5,226.5-226.6,226.6-125.1-.1-226.4-101.5-226.5-226.6.1-125.1,101.4-226.5,226.5-226.6ZM252.2,156.2c71.4,0,132.8,40.2,164.1,98.2l-92.6-36.8c-74.8-26.8-157.4,10-186.4,83.7C107.1,375,141.7,458.7,214.2,491l78.1,31.2a164.39,164.39,0,0,1-40.2,4.5C149.4,527,66,443.8,65.8,341.1v-.7C65.6,237.6,148.7,154.2,251.4,154h.7v2.2ZM1583.7,703.1c102.7-.3,186.1,82.8,186.4,185.5v.9c.2,102.7-82.9,186.2-185.6,186.4h-.8a183.8,183.8,0,0,1-164.1-99.3c30.2,12.3,61.4,24.6,91.6,36.8a149.77,149.77,0,0,0,193.1-81.5A147.55,147.55,0,0,0,1622,740.14l-.11,0c-.1,0-.1-.1-.2-.1l-77-31.2c13.4-3.4,26.8-4.5,40.2-4.5l-1.2-1.2Z" transform="translate(0 0)"/></svg>