<svg id="Слой_3" data-name="Слой 3" xmlns="http://www.w3.org/2000/svg" viewBox="0 0 2498.74 2045.99"><defs><style>.cls-1{fill:#fff;}</style></defs><path class="cls-1" d="M2442.53-278.7a945.6,945.6,0,0,1-120.91,44A534,534,0,0,0,2430.36-426a40.3,40.3,0,0,0-26.18-50.63,40.28,40.28,0,0,0-32.75,3.71,952.21,952.21,0,0,1-281.16,111.08c-211.83-207.33-551.63-203.67-759,8.16A536.76,536.76,0,0,0,1178.18,21.57a550.3,550.3,0,0,0,4.44,69.32A1373.35,1373.35,0,0,1,240-408.89a40.3,40.3,0,0,0-56.7-5.77,40.47,40.47,0,0,0-9.39,11,537.18,537.18,0,0,0,55.05,617.39,449.85,449.85,0,0,1-71.82-32.25A40.31,40.31,0,0,0,97.3,215.75v7.18A538.14,538.14,0,0,0,359.92,684.25c-13.7-1.37-27.33-3.3-40.87-5.88a40.29,40.29,0,0,0-45.94,51.83,536.36,536.36,0,0,0,393,359.59,948.79,948.79,0,0,1-507.27,145.1,968.86,968.86,0,0,1-113.58-6.69,40.31,40.31,0,0,0-26.52,74,1446.5,1446.5,0,0,0,782.23,228.85c546.13,0,887.75-257.55,1078.23-473.58,237.47-269.39,373.7-626,373.7-978.35,0-14.67,0-29.58-.73-44.42a1041.58,1041.58,0,0,0,240-254.15,40.32,40.32,0,0,0-11.38-55.86A40.31,40.31,0,0,0,2442.53-278.7Z" transform="translate(-0.06 514.94)"/></svg>