<svg id="Слой_4" data-name="Слой 4" xmlns="http://www.w3.org/2000/svg" viewBox="0 0 2498.8 1425.52"><defs><style>.cls-1{fill:#fff;}</style></defs><path class="cls-1" d="M2481.45,1192.89a163,163,0,0,0-8.48-16.27q-65-117.15-248.47-287.53l-2.6-2.59-1.27-1.28-1.33-1.32H2218q-83.25-79.38-105.4-106.72-40.37-52-18.22-105.39,15.57-40.34,117.06-170.38,53.36-68.94,84.57-110.59Q2521.13,91.59,2491.2,8.33l-7.75-13q-7.87-11.67-40.32-21.47t-83.3-3.23l-374.65,2.6a48.81,48.81,0,0,0-26,.63l-17,3.92-6.51,3.28L1930.55-15a58.67,58.67,0,0,0-14.36,13.67,89.94,89.94,0,0,0-12.94,22.78A2118.37,2118.37,0,0,1,1764,314.09q-48.12,80.75-88.44,139.89t-67.67,87.12A471.27,471.27,0,0,1,1558.45,586q-22.14,16.95-33.81,14.31t-22.15-5.19a86.61,86.61,0,0,1-29.25-31.9,143.07,143.07,0,0,1-15-50.62q-3.91-30.63-4.55-52.68t.63-62.47q1.38-40.33,1.33-54.68,0-49.39,1.91-107.36t3.28-91.68q1.27-33.81,1.28-71.58a299.29,299.29,0,0,0-4.56-59.24,200.12,200.12,0,0,0-13.67-41.6A69.81,69.81,0,0,0,1417.28-60a150.4,150.4,0,0,0-43.56-17.54q-69-15.58-175.66-16.91Q956.11-97,887.11-63.21a175.06,175.06,0,0,0-49.39,39.05Q814.31,4.42,831.2,7.06,909.26,18.72,941.75,63l7.84,15.63q9.1,16.86,18.22,59.83a600.51,600.51,0,0,1,11.67,95,1012.66,1012.66,0,0,1,0,162.63Q973,463.69,967.13,501.41a211.87,211.87,0,0,1-17.5,61.29A265.9,265.9,0,0,1,934,591.31a21.48,21.48,0,0,1-6.51,6.47,97.06,97.06,0,0,1-35.14,6.52q-18.23,0-44.2-18.23a308.74,308.74,0,0,1-54-50.12,665.71,665.71,0,0,1-63.11-89.13q-35.13-57.22-72.91-135.29l-20.78-37.72q-19.54-36.47-53.36-106T524.17,33.12A85.61,85.61,0,0,0,493-8.48l-6.51-3.92a89.56,89.56,0,0,0-20.83-11.07,137.18,137.18,0,0,0-29.94-8.43L79.26-29.35q-54.67,0-74.18,24.74L-.07,3.09A42.37,42.37,0,0,0-4,23.92,103.85,103.85,0,0,0,3.8,59.05Q81.86,242.5,173.72,412.92T333.2,687.41q67.68,104.13,137.94,196.44t93,118.48q22.79,26,35.77,39l32.53,31.26a775.78,775.78,0,0,0,91.73,74.78,1557.58,1557.58,0,0,0,134,85.89,726.62,726.62,0,0,0,171.06,68.94,591.8,591.8,0,0,0,189.69,21.46h149.6q45.56-3.92,69-28.61l5.14-6.52a85.54,85.54,0,0,0,9.76-24.06,131.68,131.68,0,0,0,4.55-35.77,431,431,0,0,1,8.43-101q9.75-44.94,22.15-67.67a165.47,165.47,0,0,1,28-38.37,114.38,114.38,0,0,1,22.14-18.86,85.65,85.65,0,0,1,10.39-4.56q31.17-10.39,73.5,20.19a433.57,433.57,0,0,1,79.38,75.46q37,44.92,89.08,100.83t91.13,83.26l26,15.62a317.27,317.27,0,0,0,67.67,28.62q41.55,13,72.9,6.52l332.92-5.11q49.4,0,76.73-16.31t32.54-35.77a100.25,100.25,0,0,0,.68-44.24A164.91,164.91,0,0,0,2481.45,1192.89Z" transform="translate(4.09 94.61)"/></svg>