<svg id="Слой_5" data-name="Слой 5" xmlns="http://www.w3.org/2000/svg" viewBox="0 0 2491.62 1743.37"><defs><style>.cls-1{fill:#fff;}</style></defs><g id="g5"><path class="cls-1" d="M2438.68-72.31a311,311,0,0,0-219.31-219.31C2024.46-345,1245.17-345,1245.17-345s-779.63,0-974.54,51.25A317.65,317.65,0,0,0,51.32-72.31C.06,122.6.06,526.71.06,526.71s0,406.21,51.26,599a311.71,311.71,0,0,0,219.31,219.32c197,53.34,976.29,53.34,976.29,53.34s779.28,0,974.19-51.25a311.71,311.71,0,0,0,219.31-219.32c51.26-194.9,51.26-599,51.26-599S2492,122.6,2438.68-72.31ZM996.92,900.14V153.28L1645.1,526.71Z" transform="translate(-0.06 344.97)"/></g></svg>