<svg id="svg" xmlns="http://www.w3.org/2000/svg" xmlns:xlink="http://www.w3.org/1999/xlink" width="400" height="275" viewBox="0, 0, 400,275"><g id="svgg"><path id="path0" d="M34.603 0.525 C 34.318 0.708,34.093 0.751,33.353 0.768 C 31.965 0.798,31.016 1.141,28.933 2.364 C 28.429 2.660,27.214 3.274,26.232 3.730 C 22.808 5.318,21.585 6.563,22.190 7.843 C 22.524 8.551,22.525 8.552,23.700 8.798 C 24.168 8.896,25.090 9.179,25.750 9.426 C 27.051 9.914,27.644 10.055,28.800 10.152 C 29.213 10.187,30.203 10.366,31.000 10.552 C 33.008 11.018,33.520 11.100,34.412 11.100 C 36.135 11.100,36.137 11.374,34.425 12.950 C 33.724 13.596,32.822 14.346,32.420 14.618 C 29.549 16.563,29.330 17.224,30.916 19.159 C 31.227 19.539,31.851 20.313,32.301 20.879 C 33.486 22.367,34.399 23.062,35.918 23.634 C 36.747 23.946,37.574 24.367,38.703 25.052 C 39.961 25.815,41.051 26.351,41.757 26.555 C 42.083 26.649,42.498 26.856,42.679 27.013 C 43.104 27.385,43.713 27.689,44.950 28.151 C 45.500 28.356,46.130 28.626,46.350 28.751 C 46.570 28.876,46.927 29.009,47.143 29.047 C 47.360 29.085,47.855 29.281,48.243 29.483 L 48.950 29.850 53.050 29.840 C 56.527 29.832,57.264 29.804,57.900 29.660 C 58.313 29.566,59.098 29.424,59.646 29.344 C 60.411 29.233,60.735 29.135,61.046 28.925 L 61.450 28.650 63.550 28.644 L 65.650 28.637 66.400 28.325 C 66.813 28.154,67.668 27.774,68.300 27.482 L 69.450 26.950 77.491 26.922 L 85.532 26.894 86.294 27.148 C 87.945 27.698,91.176 27.983,92.550 27.701 C 92.880 27.633,93.218 27.583,93.300 27.589 C 93.383 27.596,93.945 27.643,94.550 27.694 C 95.155 27.744,96.415 27.950,97.350 28.151 C 98.285 28.353,99.252 28.535,99.500 28.557 C 100.548 28.649,100.932 28.742,102.500 29.275 C 104.005 29.787,104.242 29.840,105.200 29.877 C 105.974 29.906,106.428 29.980,106.926 30.157 C 107.298 30.289,108.266 30.509,109.076 30.647 C 109.887 30.785,111.045 31.009,111.650 31.146 C 112.255 31.283,113.875 31.554,115.250 31.749 C 116.625 31.944,118.213 32.192,118.779 32.301 C 119.345 32.410,120.695 32.569,121.779 32.653 C 123.277 32.770,123.938 32.867,124.533 33.054 C 125.611 33.395,126.866 33.600,127.872 33.600 C 128.567 33.600,128.764 33.636,128.973 33.800 C 129.175 33.959,129.378 34.000,129.967 34.000 C 130.543 34.000,130.802 34.050,131.129 34.224 C 131.520 34.432,131.656 34.446,133.026 34.418 C 134.392 34.390,134.522 34.403,134.765 34.594 C 134.970 34.755,135.172 34.800,135.696 34.800 C 136.140 34.800,136.916 34.936,138.007 35.205 C 138.910 35.427,140.076 35.650,140.599 35.701 C 141.122 35.751,141.910 35.865,142.350 35.953 C 142.790 36.041,143.600 36.126,144.150 36.141 C 144.700 36.155,145.308 36.218,145.500 36.280 C 147.452 36.910,150.334 37.351,153.450 37.497 C 154.715 37.556,156.358 37.669,157.100 37.747 C 157.843 37.826,158.855 37.920,159.350 37.958 C 159.845 37.995,160.475 38.088,160.750 38.163 C 163.879 39.018,164.339 39.097,166.084 39.078 L 167.750 39.060 169.400 39.671 C 171.708 40.526,172.162 40.605,175.300 40.697 C 177.754 40.769,178.005 40.794,178.700 41.028 C 179.113 41.167,179.720 41.310,180.050 41.346 C 183.184 41.691,184.416 41.945,185.350 42.438 C 186.223 42.899,190.474 45.492,192.280 46.666 C 194.069 47.828,194.603 47.998,195.300 47.624 C 196.701 46.873,195.972 44.746,193.062 41.100 C 192.514 40.413,191.830 39.487,191.544 39.043 C 190.428 37.316,190.556 37.353,185.550 37.337 C 182.141 37.326,181.324 37.296,180.704 37.159 C 180.294 37.068,179.619 36.966,179.204 36.932 C 178.789 36.898,178.361 36.810,178.253 36.735 C 178.134 36.654,177.777 36.599,177.353 36.599 C 176.915 36.598,176.405 36.518,176.000 36.387 C 175.480 36.220,174.959 36.162,173.400 36.102 C 171.592 36.032,171.382 36.004,170.517 35.715 C 170.003 35.544,169.172 35.332,168.668 35.245 C 168.165 35.157,167.122 34.930,166.352 34.740 C 163.016 33.918,159.837 33.439,158.491 33.557 C 158.008 33.599,157.653 33.587,157.576 33.526 C 157.366 33.359,156.249 33.202,154.200 33.049 C 153.118 32.968,151.738 32.797,151.100 32.664 C 150.312 32.500,149.431 32.405,148.300 32.360 C 145.656 32.256,144.599 32.193,143.818 32.094 C 143.415 32.042,142.700 32.000,142.229 32.000 C 141.401 32.000,137.147 31.203,136.346 30.898 C 135.736 30.666,132.256 29.906,130.387 29.596 C 129.747 29.491,129.095 29.355,128.938 29.295 C 128.780 29.235,127.976 29.032,127.151 28.843 C 126.325 28.655,125.526 28.450,125.375 28.388 C 125.180 28.308,125.063 28.307,124.971 28.382 C 124.886 28.453,124.711 28.458,124.447 28.397 C 124.228 28.346,123.825 28.303,123.550 28.300 C 123.256 28.297,122.865 28.208,122.600 28.082 C 122.258 27.920,121.923 27.863,121.200 27.843 C 120.579 27.826,120.112 27.757,119.850 27.646 C 119.485 27.490,116.673 27.243,116.497 27.352 C 116.464 27.372,115.855 27.301,115.143 27.194 C 114.432 27.086,113.434 26.955,112.926 26.902 C 112.418 26.849,111.180 26.644,110.176 26.447 C 109.172 26.250,107.540 25.933,106.550 25.744 C 105.560 25.555,104.533 25.355,104.267 25.300 C 104.002 25.245,103.681 25.200,103.555 25.200 C 103.428 25.200,103.273 25.138,103.210 25.062 C 103.148 24.987,102.928 24.898,102.723 24.865 C 102.518 24.831,101.793 24.647,101.112 24.454 C 100.366 24.243,99.690 24.111,99.412 24.123 C 98.744 24.150,96.974 23.924,96.078 23.696 C 95.535 23.558,94.969 23.500,94.171 23.500 C 93.389 23.500,92.807 23.441,92.294 23.311 C 91.872 23.204,90.987 23.095,90.250 23.060 C 89.535 23.027,88.725 22.930,88.450 22.845 C 88.101 22.738,87.765 22.711,87.338 22.756 C 86.837 22.809,86.638 22.782,86.250 22.610 C 85.929 22.468,85.568 22.400,85.136 22.400 C 84.316 22.400,82.901 22.092,81.469 21.602 C 80.848 21.390,80.056 21.165,79.709 21.102 C 77.680 20.734,76.188 20.063,73.986 18.527 C 71.877 17.056,70.468 16.386,69.824 16.547 C 69.688 16.582,69.120 17.047,68.563 17.582 C 66.282 19.771,62.811 21.972,61.100 22.314 C 60.499 22.434,60.305 22.533,60.302 22.725 C 60.301 22.766,60.449 22.800,60.630 22.800 C 60.972 22.800,61.900 23.310,61.900 23.498 C 61.900 23.554,62.051 23.600,62.237 23.600 C 62.601 23.600,63.052 23.893,63.147 24.190 C 63.185 24.311,63.340 24.397,63.594 24.437 C 63.868 24.481,64.058 24.595,64.241 24.825 C 64.384 25.004,64.568 25.221,64.651 25.308 C 64.844 25.513,64.843 25.710,64.650 25.636 C 64.567 25.605,64.500 25.516,64.500 25.439 C 64.500 25.358,64.398 25.300,64.257 25.300 C 63.854 25.300,63.520 25.125,63.368 24.835 C 63.264 24.638,63.102 24.531,62.790 24.455 C 62.470 24.378,62.296 24.260,62.125 24.006 C 61.925 23.707,61.833 23.658,61.436 23.635 C 60.893 23.603,60.562 23.409,60.350 22.999 C 60.093 22.502,59.442 22.648,58.169 23.487 C 57.663 23.820,57.070 24.130,56.850 24.175 C 56.301 24.288,56.206 24.795,56.695 24.998 C 57.011 25.129,57.062 25.248,56.906 25.493 C 56.832 25.611,56.753 25.588,56.456 25.361 C 56.258 25.210,56.119 25.050,56.147 25.004 C 56.284 24.783,55.511 24.809,54.928 25.046 C 54.593 25.183,53.830 25.387,53.234 25.499 C 52.638 25.612,51.673 25.816,51.091 25.952 C 49.411 26.345,49.068 26.277,47.250 25.185 C 46.645 24.822,45.588 24.221,44.900 23.850 C 42.074 22.323,39.260 19.844,39.457 19.056 C 39.551 18.681,41.045 17.305,43.100 15.699 C 44.118 14.904,45.490 13.731,46.150 13.093 C 47.548 11.741,47.542 11.745,48.609 11.542 C 49.059 11.457,49.994 11.230,50.688 11.038 C 51.682 10.763,52.141 10.688,52.850 10.684 C 54.293 10.676,54.403 10.502,53.538 9.595 C 52.848 8.873,52.352 8.623,51.478 8.556 C 50.242 8.463,49.548 8.152,47.849 6.933 C 47.245 6.499,46.570 6.035,46.350 5.903 C 46.130 5.770,45.545 5.372,45.050 5.019 C 44.555 4.666,43.813 4.210,43.400 4.006 C 42.988 3.801,42.299 3.447,41.870 3.217 C 41.373 2.952,40.960 2.800,40.733 2.800 C 40.506 2.800,40.172 2.677,39.813 2.463 C 38.732 1.815,37.329 1.099,36.748 0.899 C 36.427 0.789,36.012 0.609,35.826 0.499 C 35.390 0.242,35.034 0.249,34.603 0.525 M49.347 12.985 C 48.756 13.179,47.307 14.632,46.991 15.348 C 46.127 17.301,46.395 19.457,47.738 21.338 C 47.981 21.679,48.310 22.203,48.469 22.504 C 48.738 23.013,48.823 23.083,49.704 23.536 L 50.650 24.021 51.600 23.956 C 53.706 23.813,54.564 23.601,55.502 22.994 C 55.968 22.692,56.523 22.358,56.734 22.252 C 57.230 22.003,57.985 21.173,58.349 20.477 L 58.636 19.930 58.434 19.590 C 58.189 19.178,57.965 19.177,57.368 19.587 C 54.101 21.826,48.924 21.515,47.652 19.003 C 46.646 17.018,48.412 13.400,50.388 13.400 C 50.638 13.400,50.732 13.257,50.650 12.999 C 50.571 12.750,50.078 12.745,49.347 12.985 M93.610 24.105 C 93.718 24.163,94.267 24.273,94.829 24.348 C 95.390 24.423,96.146 24.555,96.507 24.641 C 96.869 24.726,97.564 24.827,98.053 24.864 C 99.268 24.958,99.350 25.045,99.447 26.343 C 99.548 27.686,99.562 27.675,98.094 27.358 C 94.873 26.665,93.954 26.557,93.472 26.815 C 92.940 27.100,91.618 26.776,91.314 26.287 C 90.876 25.582,91.154 24.351,91.800 24.131 C 92.239 23.981,93.349 23.965,93.610 24.105 M100.526 25.787 C 100.704 25.843,101.094 25.915,101.392 25.946 C 101.690 25.976,102.110 26.049,102.326 26.107 C 102.541 26.165,102.851 26.183,103.015 26.147 C 103.321 26.080,103.751 26.143,105.850 26.568 C 106.510 26.702,107.320 26.859,107.650 26.917 C 107.980 26.975,109.038 27.177,110.000 27.365 C 110.963 27.553,112.020 27.730,112.350 27.759 C 113.279 27.840,115.427 28.173,116.263 28.367 C 116.410 28.400,116.575 28.320,116.792 28.108 C 117.163 27.745,117.195 27.744,118.750 27.991 C 119.410 28.096,120.265 28.212,120.650 28.249 C 121.035 28.286,121.450 28.380,121.571 28.458 C 121.703 28.543,122.048 28.599,122.421 28.599 C 123.143 28.597,124.666 28.965,124.924 29.202 C 125.020 29.291,125.402 29.423,125.774 29.497 C 126.146 29.570,126.517 29.664,126.600 29.705 C 126.683 29.745,127.043 29.831,127.400 29.896 C 127.758 29.960,128.337 30.100,128.688 30.207 C 129.039 30.314,129.854 30.476,130.500 30.566 C 131.550 30.714,131.668 30.750,131.625 30.915 C 131.569 31.130,131.752 31.168,131.833 30.959 C 131.875 30.850,131.973 30.837,132.268 30.903 C 132.478 30.950,132.988 31.062,133.400 31.150 C 134.567 31.402,135.824 31.714,136.100 31.821 C 136.409 31.940,139.892 32.676,140.857 32.825 L 141.564 32.935 141.520 33.492 C 141.470 34.129,141.265 34.438,140.946 34.358 C 140.829 34.329,140.287 34.256,139.742 34.197 C 139.196 34.138,138.503 34.027,138.200 33.950 C 137.898 33.873,137.268 33.790,136.800 33.765 C 136.161 33.731,135.814 33.656,135.400 33.461 C 134.913 33.232,134.724 33.202,133.750 33.200 C 132.051 33.198,131.500 32.842,131.500 31.746 C 131.500 31.520,131.309 31.571,130.940 31.896 C 130.323 32.438,128.522 32.511,127.050 32.054 C 126.775 31.969,126.055 31.855,125.450 31.802 C 124.845 31.749,124.129 31.637,123.859 31.553 C 123.589 31.469,123.027 31.400,122.609 31.399 C 121.844 31.399,121.331 31.331,120.050 31.062 C 119.665 30.981,118.810 30.867,118.150 30.808 C 116.273 30.640,115.713 30.377,115.361 29.499 C 115.166 29.010,115.054 29.002,114.644 29.450 C 114.232 29.900,113.938 29.900,113.400 29.450 C 112.844 28.986,112.570 28.992,112.333 29.473 C 112.074 30.001,111.710 30.086,110.884 29.811 C 110.534 29.695,109.753 29.553,109.149 29.497 C 108.544 29.441,107.578 29.309,107.000 29.204 C 106.422 29.099,105.620 28.964,105.216 28.904 C 104.301 28.769,103.879 28.595,103.386 28.149 C 102.950 27.755,102.869 27.740,102.365 27.950 C 101.307 28.392,100.047 27.490,99.923 26.202 C 99.865 25.603,99.960 25.254,100.107 25.517 C 100.159 25.610,100.347 25.731,100.526 25.787 M57.775 25.975 C 57.836 26.159,57.532 26.128,57.461 25.943 C 57.419 25.833,57.451 25.795,57.567 25.818 C 57.659 25.835,57.752 25.906,57.775 25.975 M59.131 27.481 C 59.424 28.021,59.417 28.200,59.101 28.200 C 58.772 28.200,58.600 27.921,58.600 27.385 C 58.600 26.751,58.749 26.778,59.131 27.481 M146.600 33.189 C 149.349 33.304,149.537 33.324,151.845 33.745 C 152.612 33.885,153.647 34.005,154.145 34.012 C 154.643 34.018,155.179 34.052,155.337 34.087 L 155.624 34.150 155.187 34.465 C 154.947 34.638,154.512 35.012,154.221 35.296 C 153.380 36.119,152.541 36.303,151.297 35.940 C 150.996 35.853,150.547 35.762,150.300 35.739 C 150.053 35.715,149.400 35.610,148.850 35.505 C 148.300 35.399,147.197 35.217,146.400 35.100 C 145.603 34.983,144.805 34.866,144.628 34.840 C 144.217 34.779,144.000 34.467,144.000 33.936 C 144.000 33.202,143.939 33.161,143.426 33.553 C 142.755 34.065,142.400 33.960,142.400 33.249 L 142.400 32.985 143.175 33.032 C 143.601 33.057,145.143 33.128,146.600 33.189 M242.200 34.920 C 240.808 35.516,240.741 35.589,240.408 36.885 C 240.290 37.344,240.083 37.938,239.947 38.206 C 239.747 38.602,239.700 38.842,239.700 39.481 C 239.700 39.914,239.633 40.489,239.551 40.759 C 239.439 41.129,239.402 41.791,239.401 43.450 C 239.398 47.407,239.032 48.604,237.157 50.792 C 235.937 52.215,235.387 52.996,234.936 53.945 C 234.628 54.595,234.492 54.768,234.107 55.005 C 233.153 55.592,232.916 56.179,231.751 60.850 C 231.296 62.671,230.849 63.790,230.004 65.217 C 229.603 65.895,229.134 66.689,228.962 66.982 C 228.790 67.274,228.401 67.794,228.098 68.136 C 227.794 68.478,227.112 69.409,226.582 70.205 C 225.032 72.531,224.610 72.904,223.697 72.749 C 223.182 72.662,223.069 72.448,223.152 71.719 C 223.332 70.143,223.912 68.555,224.839 67.100 C 225.165 66.588,225.214 66.398,225.547 64.358 C 226.046 61.299,226.512 60.001,227.797 58.100 C 228.713 56.745,228.924 56.261,228.978 55.400 C 229.003 54.988,229.081 54.583,229.150 54.500 C 229.620 53.942,229.738 53.475,229.804 51.900 C 229.900 49.628,230.271 48.696,231.841 46.794 C 232.301 46.235,232.933 45.366,233.245 44.862 C 233.557 44.358,234.407 43.125,235.134 42.122 C 238.083 38.055,238.713 36.392,237.671 35.437 C 237.089 34.904,236.852 34.961,235.051 36.069 C 234.887 36.170,234.662 36.393,234.551 36.565 C 234.412 36.782,234.246 36.896,234.011 36.935 C 233.613 37.002,233.200 37.354,233.200 37.625 C 233.200 38.035,234.120 37.620,234.309 37.125 C 234.384 36.929,234.467 36.900,234.952 36.900 C 235.314 36.900,235.647 36.829,235.907 36.697 L 236.306 36.493 236.244 36.772 C 236.086 37.483,235.950 37.716,235.366 38.277 C 233.800 39.781,231.846 40.647,231.496 39.993 C 231.337 39.695,231.576 39.381,232.274 38.974 C 232.869 38.627,233.248 38.008,233.010 37.770 C 232.663 37.423,229.300 40.648,229.471 41.163 C 229.564 41.444,229.584 41.451,230.374 41.479 C 231.605 41.523,231.614 41.652,230.433 42.390 C 229.188 43.169,228.763 43.134,228.537 42.234 C 228.384 41.623,227.361 42.674,227.262 43.544 C 227.223 43.880,227.043 44.474,226.847 44.907 C 226.564 45.533,226.500 45.797,226.500 46.332 C 226.500 46.898,226.447 47.090,226.120 47.720 C 225.275 49.342,225.076 49.541,224.071 49.771 C 223.729 49.849,223.338 49.986,223.200 50.076 C 223.063 50.165,222.830 50.229,222.684 50.218 C 222.028 50.169,220.956 51.588,220.394 53.250 C 220.262 53.642,220.013 54.115,219.829 54.325 C 219.453 54.754,219.414 55.086,219.649 55.859 C 219.851 56.525,219.840 56.694,219.554 57.312 C 219.407 57.628,219.330 57.935,219.364 58.069 C 219.398 58.207,219.339 58.425,219.210 58.633 C 219.057 58.882,219.004 59.122,219.013 59.528 C 219.022 59.911,218.960 60.220,218.814 60.522 C 218.697 60.763,218.563 61.167,218.515 61.420 C 218.446 61.793,218.323 61.984,217.865 62.431 C 217.554 62.735,217.300 63.046,217.300 63.123 C 217.300 63.301,216.692 64.099,216.554 64.103 C 216.497 64.105,216.090 64.517,215.650 65.018 C 215.210 65.518,214.599 66.181,214.292 66.489 C 213.986 66.798,213.564 67.275,213.355 67.550 C 212.287 68.956,209.135 72.363,208.111 73.218 C 207.934 73.366,206.970 73.923,205.970 74.457 C 202.374 76.374,202.105 76.761,202.343 79.658 C 202.424 80.636,202.418 80.685,202.144 81.296 L 201.861 81.926 202.080 82.308 C 202.350 82.777,202.354 83.007,202.106 83.659 C 201.963 84.035,201.913 84.415,201.916 85.109 C 201.918 85.695,201.840 86.422,201.709 87.036 C 201.594 87.578,201.500 88.258,201.500 88.546 C 201.500 89.361,200.974 89.690,200.684 89.055 C 200.591 88.852,200.612 88.679,200.794 88.128 C 200.973 87.586,201.029 87.130,201.075 85.852 C 201.121 84.544,201.165 84.198,201.315 83.952 C 201.550 83.566,201.547 83.333,201.300 82.774 C 201.090 82.300,201.101 81.965,201.347 81.300 C 201.438 81.054,201.453 80.772,201.396 80.350 C 201.352 80.020,201.268 79.375,201.209 78.918 C 201.078 77.890,200.816 77.278,200.270 76.721 L 199.850 76.292 199.816 75.144 C 199.787 74.128,199.806 73.956,199.989 73.647 C 200.207 73.276,200.124 72.800,199.840 72.800 C 198.320 72.800,197.323 73.391,195.937 75.116 C 194.929 76.369,194.327 76.932,193.551 77.344 C 192.932 77.673,192.749 77.839,192.596 78.210 C 192.414 78.650,192.475 78.649,193.765 78.203 C 195.733 77.522,197.378 77.248,199.100 77.315 C 200.051 77.352,200.195 77.422,200.198 77.854 C 200.199 77.966,200.290 78.234,200.400 78.450 C 200.672 78.983,200.652 79.213,200.307 79.544 C 199.987 79.850,199.923 79.851,198.900 79.554 C 198.219 79.356,197.129 79.462,196.000 79.834 C 193.847 80.544,192.816 80.946,192.120 81.345 C 191.696 81.588,191.165 81.835,190.938 81.894 C 189.754 82.201,189.463 83.928,190.203 86.260 C 190.425 86.958,190.630 87.804,190.660 88.139 C 190.689 88.475,190.806 89.053,190.919 89.424 C 191.211 90.381,191.106 93.752,190.764 94.420 C 190.303 95.321,188.938 95.575,187.700 94.990 C 187.398 94.847,186.733 94.628,186.224 94.504 C 185.591 94.349,185.165 94.178,184.874 93.964 C 184.625 93.780,184.319 93.646,184.132 93.640 C 183.911 93.632,183.671 93.504,183.349 93.220 C 183.083 92.985,182.678 92.750,182.404 92.670 C 181.857 92.509,179.440 90.877,178.528 90.052 C 178.201 89.755,177.667 89.387,177.341 89.234 C 176.668 88.916,172.890 85.327,169.223 81.520 C 166.851 79.058,166.764 79.000,165.424 79.000 C 164.891 79.000,164.059 78.910,163.430 78.785 C 162.831 78.666,161.905 78.564,161.350 78.555 C 160.568 78.543,160.274 78.497,160.000 78.345 C 159.507 78.071,158.156 78.083,156.900 78.373 C 156.378 78.493,155.725 78.610,155.450 78.633 C 155.123 78.660,154.725 78.798,154.300 79.032 C 153.942 79.229,153.004 79.641,152.216 79.948 C 148.820 81.270,144.643 84.209,142.686 86.652 C 141.571 88.044,141.394 88.067,139.446 87.078 C 135.543 85.095,135.043 84.876,134.275 84.822 C 133.632 84.777,133.380 84.689,132.050 84.048 C 131.225 83.650,130.116 83.140,129.585 82.914 C 129.054 82.689,128.132 82.232,127.535 81.900 C 126.938 81.567,126.233 81.230,125.968 81.151 C 125.702 81.071,125.364 80.875,125.212 80.713 C 125.031 80.519,124.704 80.349,124.244 80.210 C 123.862 80.094,123.354 79.867,123.116 79.704 C 122.580 79.339,120.792 78.638,119.851 78.426 C 118.566 78.135,117.568 78.466,115.326 79.925 C 111.205 82.607,108.205 86.235,105.745 91.512 C 105.241 92.592,104.569 93.911,104.252 94.442 C 103.935 94.973,103.456 95.949,103.187 96.612 C 102.918 97.275,102.552 98.021,102.374 98.270 C 101.927 98.895,101.930 98.890,101.789 99.443 C 101.547 100.397,100.793 100.878,99.275 101.050 C 98.959 101.085,98.700 101.153,98.700 101.200 C 98.700 101.371,98.239 102.013,97.722 102.563 C 97.216 103.101,97.146 103.137,96.475 103.194 C 96.434 103.197,96.400 103.286,96.400 103.391 C 96.400 103.613,95.909 104.400,95.771 104.400 C 95.719 104.400,95.514 104.308,95.314 104.196 C 95.114 104.084,94.365 103.757,93.650 103.471 C 92.499 103.010,92.333 102.913,92.200 102.627 C 92.057 102.320,92.022 102.304,91.491 102.302 C 91.183 102.301,90.711 102.233,90.441 102.151 C 90.171 102.069,89.765 102.002,89.539 102.001 C 89.233 102.000,89.030 101.923,88.748 101.698 C 88.539 101.532,88.116 101.325,87.809 101.237 C 87.450 101.135,87.118 100.952,86.882 100.725 C 86.606 100.461,86.386 100.352,86.008 100.292 C 85.729 100.248,85.357 100.102,85.177 99.965 C 84.880 99.740,80.940 97.906,79.760 97.442 C 79.490 97.337,79.010 97.013,78.694 96.723 C 78.324 96.384,77.928 96.130,77.584 96.011 C 77.290 95.910,76.388 95.484,75.579 95.064 C 74.770 94.644,74.027 94.300,73.929 94.300 C 73.830 94.300,73.630 94.174,73.484 94.019 C 73.180 93.696,72.252 93.400,71.548 93.400 C 71.283 93.400,70.920 93.312,70.682 93.191 C 70.349 93.021,70.225 93.002,70.030 93.091 C 69.863 93.167,67.908 93.197,63.620 93.189 C 58.280 93.179,57.363 93.199,56.800 93.337 C 56.442 93.425,55.966 93.498,55.741 93.499 C 55.516 93.499,54.976 93.593,54.541 93.706 C 54.106 93.819,53.345 93.978,52.850 94.058 C 52.355 94.139,51.208 94.402,50.300 94.642 C 49.393 94.882,48.290 95.156,47.850 95.251 C 47.410 95.346,46.420 95.668,45.650 95.966 C 37.648 99.064,32.286 102.805,28.907 107.650 C 27.573 109.562,26.477 110.912,25.339 112.044 C 23.795 113.581,23.657 114.061,24.475 115.044 C 24.609 115.206,24.830 115.588,24.965 115.893 C 25.539 117.191,25.668 117.237,28.900 117.309 C 31.292 117.361,31.618 117.389,32.248 117.595 C 32.862 117.795,33.064 117.814,33.910 117.754 C 35.033 117.675,35.438 117.791,35.799 118.298 L 36.027 118.619 38.719 118.546 C 41.055 118.482,41.459 118.448,41.777 118.286 C 42.257 118.042,42.339 118.048,43.400 118.400 C 43.897 118.565,44.413 118.700,44.548 118.700 C 44.685 118.700,44.837 118.782,44.893 118.887 C 45.124 119.318,45.562 119.400,47.628 119.400 C 49.759 119.400,50.213 119.484,50.721 119.970 L 50.994 120.232 52.992 120.241 L 54.989 120.250 55.319 120.569 C 55.846 121.076,56.003 121.100,58.863 121.100 C 61.573 121.100,61.718 121.118,62.112 121.512 C 62.450 121.850,62.764 121.900,64.554 121.900 C 66.285 121.900,66.296 121.902,66.454 122.141 C 66.709 122.531,67.193 122.700,68.052 122.700 C 68.784 122.700,68.880 122.728,69.937 123.246 C 71.334 123.932,72.727 124.400,73.372 124.400 C 74.046 124.400,74.648 124.625,75.300 125.120 C 76.248 125.839,76.520 126.000,76.793 126.000 C 77.516 126.000,79.201 126.648,80.124 127.281 C 80.915 127.823,81.607 128.108,82.731 128.355 C 83.346 128.490,84.075 128.689,84.350 128.796 C 84.625 128.903,85.039 129.039,85.270 129.098 C 85.502 129.157,85.818 129.312,85.973 129.442 C 86.142 129.585,86.971 129.910,88.052 130.257 C 89.041 130.574,90.165 130.967,90.550 131.129 C 90.935 131.292,91.390 131.418,91.562 131.410 C 91.791 131.399,92.035 131.517,92.476 131.848 C 92.837 132.119,93.183 132.300,93.343 132.300 C 93.489 132.300,93.736 132.395,93.892 132.510 C 94.106 132.668,94.460 132.753,95.313 132.852 C 96.248 132.960,96.646 133.063,97.550 133.434 C 99.430 134.204,101.015 134.524,102.710 134.475 L 103.569 134.450 105.032 135.194 L 106.495 135.939 107.861 136.015 C 109.157 136.087,109.265 136.109,109.988 136.460 C 110.749 136.828,110.752 136.829,112.450 136.895 C 114.103 136.960,114.171 136.971,114.900 137.301 L 115.650 137.641 117.800 137.704 C 119.891 137.766,119.971 137.776,120.700 138.071 C 121.842 138.532,121.720 138.525,128.648 138.546 C 135.756 138.567,135.990 138.552,137.881 137.948 C 138.335 137.803,138.896 137.701,139.250 137.700 C 140.473 137.693,141.946 137.232,143.250 136.447 C 144.441 135.730,145.808 135.193,147.700 134.700 C 147.947 134.636,148.667 134.365,149.300 134.099 C 149.933 133.832,150.671 133.559,150.942 133.491 C 151.331 133.394,151.585 133.224,152.161 132.676 C 152.829 132.042,152.944 131.973,153.547 131.847 C 156.176 131.297,158.960 129.856,161.130 127.923 C 161.828 127.301,162.386 126.981,163.000 126.850 C 163.530 126.737,164.006 126.466,164.816 125.816 C 166.001 124.864,166.681 124.475,168.414 123.754 C 170.614 122.841,171.695 122.291,172.650 121.602 C 174.872 120.000,178.514 118.960,179.467 119.656 C 180.501 120.411,180.416 122.166,179.287 123.369 C 178.697 123.998,178.699 123.901,179.254 124.973 C 179.625 125.689,179.772 126.143,180.054 127.450 C 181.188 132.691,182.037 135.141,183.148 136.376 C 183.780 137.080,184.032 137.216,185.858 137.837 C 186.734 138.136,187.833 138.516,188.300 138.683 C 188.768 138.850,189.858 139.149,190.724 139.349 C 191.589 139.548,192.621 139.821,193.016 139.955 C 193.482 140.114,193.959 140.200,194.371 140.200 C 195.161 140.200,195.499 140.342,196.213 140.972 C 197.354 141.979,198.059 142.180,198.840 141.719 C 199.045 141.598,199.360 141.500,199.541 141.500 C 199.886 141.500,200.446 141.151,200.900 140.653 C 201.038 140.502,201.803 139.936,202.600 139.396 C 204.753 137.937,205.383 137.388,208.439 134.310 C 210.009 132.729,211.307 131.500,211.407 131.500 C 211.505 131.500,211.712 131.372,211.869 131.216 C 212.027 131.057,212.441 130.836,212.808 130.714 C 213.242 130.569,213.599 130.366,213.863 130.112 C 214.083 129.901,214.664 129.520,215.156 129.265 C 216.648 128.490,218.272 127.154,219.976 125.300 C 221.666 123.461,222.174 122.588,222.800 120.450 C 223.302 118.738,223.776 117.898,224.606 117.250 C 225.502 116.551,225.806 115.063,225.225 114.221 L 224.850 113.677 224.818 112.073 C 224.775 109.941,224.585 110.289,227.293 107.552 L 229.671 105.150 229.719 104.574 C 229.779 103.844,230.004 103.592,230.905 103.248 C 231.787 102.911,232.322 102.549,233.019 101.816 C 233.406 101.409,233.693 101.197,233.919 101.152 C 234.522 101.030,234.582 100.994,234.687 100.695 C 234.815 100.328,235.207 100.164,235.760 100.246 C 236.211 100.314,236.339 100.227,236.451 99.780 C 236.523 99.495,236.598 99.466,237.575 99.346 C 238.030 99.290,238.100 99.252,238.100 99.061 C 238.100 98.711,238.298 98.600,238.923 98.600 C 239.781 98.600,241.284 97.737,241.991 96.839 C 242.838 95.763,240.591 91.131,238.597 89.841 C 237.371 89.048,237.566 88.422,239.098 88.231 C 241.056 87.986,245.211 92.417,245.211 94.750 C 245.211 95.279,245.259 95.536,245.400 95.749 C 245.576 96.018,245.577 96.045,245.419 96.160 C 245.326 96.228,245.286 96.319,245.330 96.363 C 245.434 96.467,245.864 95.936,246.002 95.531 C 246.094 95.262,246.070 95.099,245.847 94.481 C 245.701 94.079,245.492 93.470,245.382 93.128 L 245.182 92.506 245.404 91.828 C 245.724 90.855,245.847 90.649,246.552 89.898 C 247.489 88.900,247.560 88.374,246.908 87.278 C 246.100 85.918,246.054 85.761,246.044 84.370 C 246.034 82.938,245.878 82.544,245.421 82.789 C 244.949 83.041,244.800 83.496,244.800 84.680 C 244.800 85.964,244.730 86.100,244.068 86.100 C 243.586 86.101,243.236 86.290,242.281 87.068 C 241.387 87.797,241.125 87.860,240.069 87.605 C 239.065 87.362,238.620 87.449,237.643 88.079 C 237.317 88.290,236.465 88.792,235.750 89.196 C 233.972 90.199,233.383 90.611,232.447 91.505 C 232.005 91.927,231.487 92.352,231.297 92.449 C 230.653 92.776,229.660 93.537,228.653 94.476 C 227.751 95.316,227.022 95.795,226.275 96.037 C 226.164 96.073,226.100 96.196,226.099 96.372 C 226.098 96.702,225.467 97.389,225.345 97.192 C 225.304 97.125,225.343 97.034,225.436 96.982 C 225.526 96.931,225.600 96.783,225.600 96.653 C 225.600 96.285,225.704 96.100,225.911 96.100 C 226.034 96.100,226.100 96.030,226.100 95.897 C 226.100 95.222,226.566 94.652,227.637 94.017 C 228.593 93.450,229.113 92.963,229.438 92.328 C 229.717 91.785,230.468 91.028,231.350 90.400 C 231.680 90.165,232.153 89.782,232.400 89.549 C 232.664 89.300,232.987 89.100,233.183 89.064 C 233.773 88.954,234.179 88.703,234.293 88.377 C 234.519 87.729,234.426 83.484,234.158 82.197 C 233.445 78.769,234.133 74.906,235.755 73.232 C 236.365 72.602,236.364 72.602,236.443 71.397 C 236.506 70.413,236.711 69.634,237.068 69.016 C 237.206 68.777,237.296 68.496,237.268 68.389 C 237.184 68.068,237.393 67.508,237.742 67.118 C 237.967 66.866,238.089 66.613,238.127 66.317 C 238.174 65.953,238.289 65.774,238.842 65.201 C 239.204 64.826,239.500 64.479,239.500 64.430 C 239.500 64.380,239.748 63.966,240.050 63.509 C 240.572 62.720,240.600 62.645,240.600 62.042 C 240.600 61.431,240.617 61.388,241.050 60.900 C 241.397 60.509,241.500 60.315,241.500 60.050 C 241.500 59.862,241.590 59.479,241.700 59.200 C 241.862 58.788,241.900 58.457,241.900 57.445 C 241.900 55.469,242.671 51.880,243.460 50.184 L 243.909 49.219 244.004 47.184 C 244.057 46.065,244.172 44.610,244.260 43.950 C 244.469 42.393,244.471 37.162,244.263 36.666 C 243.679 35.273,242.906 34.618,242.200 34.920 M242.896 36.275 C 243.165 36.819,243.317 38.366,243.113 38.492 C 243.032 38.542,243.085 38.978,243.300 40.035 C 243.773 42.361,243.758 42.402,242.418 42.398 C 241.036 42.393,240.211 41.513,240.712 40.577 C 240.774 40.462,240.929 39.772,241.056 39.044 C 241.439 36.860,241.551 36.561,242.155 36.105 C 242.656 35.725,242.619 35.717,242.896 36.275 M242.200 43.856 C 242.200 43.935,242.160 44.000,242.111 44.000 C 242.000 44.000,241.893 43.741,241.971 43.662 C 242.058 43.575,242.200 43.694,242.200 43.856 M224.551 50.849 C 225.045 50.986,225.593 51.098,225.768 51.099 C 226.887 51.103,226.968 51.554,226.180 53.378 C 225.901 54.023,225.592 54.813,225.493 55.136 C 225.257 55.898,225.068 56.100,224.590 56.100 C 224.007 56.100,224.040 56.203,224.966 57.260 C 226.116 58.572,226.382 59.266,225.893 59.676 C 225.290 60.182,225.117 60.625,225.173 61.522 C 225.208 62.079,225.186 62.440,225.107 62.588 C 224.926 62.926,223.936 63.525,223.688 63.446 C 223.504 63.388,223.485 63.421,223.501 63.766 C 223.530 64.387,223.511 64.479,223.391 64.273 C 223.256 64.041,223.100 64.145,223.100 64.467 C 223.100 64.655,223.140 64.706,223.254 64.662 C 223.341 64.629,223.432 64.667,223.464 64.752 C 223.496 64.833,223.582 64.900,223.657 64.900 C 223.929 64.900,224.020 65.629,223.808 66.112 C 223.702 66.353,223.500 67.067,223.359 67.700 C 223.024 69.198,222.512 70.216,221.861 70.676 C 221.477 70.947,221.400 70.972,221.399 70.826 C 221.398 70.729,221.333 70.538,221.255 70.400 C 221.176 70.263,221.048 70.014,220.971 69.848 C 220.796 69.476,220.076 68.823,220.020 68.989 C 219.999 69.053,220.109 69.266,220.266 69.461 C 220.422 69.656,220.634 69.921,220.738 70.049 C 220.872 70.215,220.931 70.469,220.947 70.946 C 220.958 71.311,220.936 71.558,220.897 71.495 C 220.843 71.408,220.772 71.408,220.607 71.496 C 220.362 71.627,220.382 71.858,220.636 71.836 C 220.726 71.828,220.800 71.876,220.800 71.942 C 220.800 72.106,221.380 72.524,221.502 72.449 C 221.628 72.371,221.628 72.561,221.502 72.796 C 221.312 73.151,220.862 73.200,217.794 73.200 C 215.625 73.200,214.484 73.244,213.584 73.362 C 211.976 73.573,209.949 73.505,209.751 73.234 C 209.636 73.077,209.716 72.952,210.447 72.153 C 210.901 71.656,211.346 71.107,211.435 70.932 C 211.525 70.757,211.902 70.285,212.274 69.882 C 212.646 69.479,213.102 68.956,213.288 68.719 C 213.474 68.482,213.682 68.310,213.751 68.337 C 213.969 68.420,214.328 68.104,214.196 67.945 C 214.044 67.763,214.149 67.623,215.381 66.360 C 215.933 65.793,216.492 65.173,216.622 64.982 C 216.798 64.722,216.920 64.640,217.104 64.659 C 217.456 64.695,217.946 64.525,218.154 64.296 C 218.401 64.023,218.280 63.953,217.900 64.150 C 217.725 64.241,217.556 64.289,217.524 64.257 C 217.492 64.226,217.511 64.200,217.564 64.200 C 217.618 64.200,217.749 64.130,217.856 64.045 C 218.039 63.899,218.033 63.894,217.735 63.951 C 217.264 64.042,217.255 63.875,217.702 63.309 C 218.056 62.861,218.149 62.800,218.477 62.799 C 219.197 62.796,219.500 62.560,219.500 62.002 C 219.500 61.883,219.583 61.802,219.725 61.782 C 219.886 61.759,219.959 61.672,219.982 61.475 C 220.017 61.166,219.863 61.109,219.708 61.375 C 219.612 61.540,219.606 61.540,219.603 61.369 C 219.601 61.270,219.555 61.216,219.500 61.250 C 219.360 61.336,219.372 60.565,219.519 60.077 C 219.593 59.831,219.720 59.650,219.855 59.598 C 220.154 59.484,220.201 59.216,220.040 58.533 C 219.859 57.763,219.862 57.336,220.050 57.264 C 220.132 57.232,220.200 57.143,220.200 57.065 C 220.200 56.988,220.268 56.868,220.350 56.800 C 220.538 56.644,220.562 55.537,220.379 55.476 C 220.151 55.400,220.694 53.942,221.163 53.372 C 221.289 53.219,221.418 52.927,221.451 52.722 C 221.565 51.997,222.407 50.800,222.803 50.800 C 222.905 50.800,223.016 50.755,223.050 50.700 C 223.149 50.539,223.589 50.583,224.551 50.849 M237.229 55.539 C 237.981 55.716,238.234 55.940,238.155 56.359 C 238.116 56.565,238.165 56.836,238.298 57.145 C 238.537 57.703,238.555 58.089,238.353 58.356 C 238.150 58.624,238.165 58.837,238.400 59.050 C 239.293 59.859,237.864 60.048,236.716 59.273 C 235.691 58.582,235.629 58.558,235.334 58.751 C 235.196 58.842,234.827 58.941,234.516 58.972 C 234.205 59.003,233.828 59.089,233.680 59.164 C 232.979 59.517,232.923 59.158,233.490 57.947 C 234.536 55.715,235.456 55.122,237.229 55.539 M214.400 67.783 C 214.400 67.924,214.513 67.989,214.660 67.932 C 214.868 67.852,214.829 67.700,214.600 67.700 C 214.490 67.700,214.400 67.737,214.400 67.783 M213.157 69.357 C 212.934 69.580,212.962 69.700,213.238 69.700 C 213.413 69.700,213.489 69.633,213.524 69.450 C 213.580 69.160,213.400 69.115,213.157 69.357 M216.619 74.442 C 216.966 74.521,217.745 74.636,218.350 74.698 C 218.955 74.760,219.743 74.883,220.100 74.972 C 220.457 75.061,221.132 75.166,221.600 75.205 C 222.940 75.316,225.325 76.181,227.450 77.328 C 229.432 78.398,229.864 78.763,230.605 79.999 C 230.905 80.498,231.216 81.015,231.298 81.148 C 231.431 81.367,231.425 81.431,231.224 81.845 C 230.910 82.490,230.601 82.427,230.600 81.717 C 230.599 80.952,229.907 80.409,229.172 80.597 C 228.891 80.670,228.294 80.740,227.847 80.753 C 227.340 80.769,226.916 80.838,226.723 80.938 C 226.289 81.163,226.175 81.087,225.598 80.188 C 224.992 79.243,224.800 78.740,224.800 78.100 C 224.800 77.439,224.648 77.341,223.568 77.306 C 223.468 77.303,223.106 77.009,222.765 76.654 C 221.393 75.227,219.793 75.413,220.297 76.940 C 220.432 77.350,221.309 78.200,221.596 78.200 C 221.872 78.200,221.857 78.484,221.575 78.588 C 220.637 78.937,220.429 78.786,219.563 77.139 C 218.708 75.511,218.564 75.528,216.560 77.492 C 214.540 79.472,214.634 79.461,213.045 77.898 C 211.647 76.524,211.521 76.497,210.503 77.348 C 209.973 77.791,209.858 77.762,209.820 77.175 C 209.782 76.592,209.628 76.461,209.091 76.552 L 208.675 76.622 208.741 77.185 C 208.793 77.622,208.874 77.817,209.107 78.057 L 209.406 78.366 209.201 78.626 C 208.693 79.272,207.914 79.167,207.254 78.362 C 206.817 77.829,206.725 77.808,206.313 78.155 C 205.678 78.689,204.714 78.191,205.008 77.481 C 205.161 77.112,207.327 75.993,208.272 75.794 C 208.590 75.728,209.638 75.474,210.600 75.230 C 212.096 74.851,212.495 74.787,213.350 74.788 C 214.150 74.789,214.480 74.742,215.000 74.554 C 215.793 74.268,215.832 74.265,216.619 74.442 M214.450 75.695 L 213.150 75.750 213.118 76.030 C 213.044 76.675,214.402 78.222,214.858 78.014 C 215.243 77.839,216.281 77.021,216.399 76.801 C 216.673 76.291,216.394 75.572,215.942 75.620 C 215.836 75.632,215.165 75.665,214.450 75.695 M226.567 78.267 C 226.233 78.600,226.594 80.027,227.039 80.138 C 227.511 80.257,228.574 79.491,228.456 79.118 C 228.339 78.752,226.783 78.050,226.567 78.267 M204.252 80.310 C 204.878 80.826,204.887 80.856,204.455 80.998 C 203.805 81.213,203.008 80.567,203.403 80.147 C 203.698 79.833,203.665 79.827,204.252 80.310 M231.032 83.838 L 231.313 84.068 231.060 84.234 C 230.737 84.446,230.709 84.444,230.432 84.183 C 229.975 83.753,230.535 83.431,231.032 83.838 M221.843 101.189 C 221.873 101.237,221.835 101.330,221.758 101.394 C 221.602 101.523,221.442 101.374,221.550 101.200 C 221.627 101.076,221.770 101.071,221.843 101.189 M221.500 101.907 C 221.500 102.437,221.352 102.700,221.052 102.700 C 220.624 102.700,220.659 102.221,221.124 101.725 C 221.423 101.406,221.500 101.443,221.500 101.907 M192.542 104.861 C 193.224 105.122,191.626 106.100,190.516 106.100 C 189.881 106.100,188.290 106.411,187.455 106.698 C 186.952 106.871,186.839 106.882,186.724 106.766 C 186.549 106.591,187.041 105.715,187.350 105.651 C 188.204 105.474,190.290 105.199,190.811 105.196 C 191.246 105.193,191.562 105.130,191.800 105.000 C 192.181 104.791,192.302 104.769,192.542 104.861 M200.759 105.005 C 201.084 105.117,201.526 105.227,201.741 105.249 C 202.139 105.290,202.296 105.421,202.298 105.713 C 202.301 105.989,202.099 106.065,200.600 106.350 C 198.847 106.684,198.469 106.683,196.940 106.342 C 196.225 106.183,195.364 106.066,194.783 106.050 C 193.330 106.008,193.108 105.553,194.250 104.958 C 194.761 104.691,199.963 104.729,200.759 105.005 M206.900 106.438 C 207.894 106.687,209.384 107.156,210.350 107.525 C 211.285 107.883,212.453 108.305,212.946 108.463 C 214.323 108.904,215.589 110.168,215.048 110.564 C 214.892 110.678,214.797 110.656,214.359 110.409 C 213.518 109.934,208.445 108.086,207.411 107.878 C 206.894 107.774,206.288 107.596,206.065 107.482 C 205.728 107.310,205.542 107.284,204.989 107.331 C 204.158 107.400,203.997 107.302,203.974 106.713 C 203.940 105.855,204.392 105.812,206.900 106.438 M188.409 117.490 C 188.685 118.006,188.170 119.023,187.491 119.304 C 187.063 119.481,186.954 119.327,186.952 118.540 C 186.949 117.419,187.976 116.678,188.409 117.490 M193.454 119.693 C 193.356 119.852,193.198 119.722,193.268 119.540 C 193.306 119.440,193.361 119.421,193.425 119.485 C 193.478 119.538,193.492 119.632,193.454 119.693 M201.884 121.731 C 202.104 121.996,201.518 123.763,201.072 124.180 L 200.826 124.411 200.507 123.930 C 199.804 122.872,201.106 120.793,201.884 121.731 M299.894 164.936 C 299.699 165.006,299.159 165.289,298.694 165.564 C 298.230 165.840,297.535 166.250,297.150 166.476 C 296.765 166.703,296.193 167.136,295.878 167.439 C 295.461 167.840,295.204 168.007,294.928 168.052 C 294.284 168.159,294.011 168.309,293.330 168.926 C 292.622 169.567,292.187 169.800,291.697 169.800 C 291.324 169.800,291.119 169.902,290.400 170.447 C 288.553 171.846,288.470 171.900,288.157 171.900 C 287.161 171.900,283.469 175.580,282.047 177.991 C 281.689 178.596,281.160 179.352,280.870 179.671 C 280.580 179.989,280.148 180.488,279.909 180.779 C 279.670 181.070,279.272 181.448,279.023 181.619 C 278.774 181.790,278.183 182.287,277.710 182.723 C 277.237 183.159,276.580 183.675,276.250 183.869 C 275.235 184.468,274.928 184.773,273.874 186.236 C 272.131 188.655,271.328 189.283,269.859 189.372 C 269.469 189.396,268.940 189.501,268.684 189.606 C 267.575 190.062,267.138 190.120,264.250 190.195 L 261.450 190.267 260.550 190.622 C 260.055 190.818,259.071 191.097,258.363 191.244 C 257.487 191.426,256.766 191.650,256.104 191.948 C 254.680 192.588,254.097 192.737,252.995 192.744 C 252.049 192.750,252.037 192.753,251.624 193.106 C 251.345 193.345,250.952 193.539,250.429 193.697 C 250.001 193.826,248.295 194.600,246.639 195.416 C 243.401 197.013,242.599 197.300,241.376 197.300 C 240.820 197.300,240.544 197.361,239.977 197.610 C 239.282 197.915,238.950 198.005,235.750 198.753 C 233.460 199.289,232.135 199.729,231.548 200.148 C 231.274 200.343,230.637 200.704,230.132 200.950 C 228.622 201.686,227.300 203.192,227.300 204.177 C 227.300 204.798,230.313 208.255,231.393 208.874 C 231.644 209.019,231.973 209.281,232.123 209.457 C 232.273 209.634,232.798 209.985,233.289 210.239 C 233.780 210.492,234.422 210.896,234.716 211.135 C 235.010 211.374,235.778 211.912,236.423 212.330 C 237.067 212.749,237.787 213.267,238.023 213.481 C 238.258 213.695,238.567 213.934,238.711 214.010 C 238.855 214.087,239.157 214.290,239.383 214.462 C 239.612 214.636,239.981 214.803,240.218 214.841 C 240.452 214.879,240.920 215.084,241.258 215.298 C 241.596 215.511,242.029 215.751,242.219 215.830 C 242.409 215.910,242.847 216.227,243.193 216.536 C 243.538 216.844,243.979 217.140,244.172 217.193 C 244.379 217.251,244.780 217.537,245.153 217.895 C 245.696 218.417,245.835 218.500,246.166 218.504 C 246.657 218.508,246.887 218.642,247.390 219.214 C 247.614 219.469,247.918 219.708,248.065 219.745 C 248.212 219.782,248.697 220.075,249.141 220.396 C 250.088 221.079,250.927 221.606,253.250 222.976 C 254.185 223.528,255.355 224.267,255.850 224.618 C 256.345 224.969,257.568 225.809,258.568 226.484 C 259.757 227.286,260.767 228.065,261.485 228.732 C 262.566 229.735,263.700 230.499,265.300 231.302 C 265.657 231.481,266.227 231.881,266.565 232.189 C 267.307 232.866,268.011 233.301,269.118 233.764 C 270.750 234.448,270.945 234.557,271.606 235.163 C 272.523 236.004,273.247 236.406,276.177 237.705 C 277.567 238.321,278.939 238.970,279.227 239.146 C 279.515 239.322,279.989 239.617,280.282 239.802 C 280.699 240.066,280.946 240.147,281.432 240.179 C 281.999 240.217,282.087 240.256,282.500 240.649 C 283.084 241.205,283.208 241.262,284.425 241.547 C 284.989 241.678,286.530 242.104,287.850 242.493 C 291.145 243.464,291.476 243.528,293.193 243.521 C 294.626 243.514,294.642 243.517,295.643 243.894 C 296.197 244.103,296.897 244.353,297.200 244.451 C 297.874 244.668,298.644 245.043,299.068 245.361 C 299.526 245.705,303.140 245.738,303.229 245.400 C 303.280 245.206,303.365 245.200,305.941 245.200 C 308.410 245.200,308.628 245.186,308.974 245.000 C 309.271 244.841,309.542 244.799,310.299 244.797 C 310.913 244.796,311.551 244.721,312.100 244.588 C 312.800 244.417,313.437 244.367,315.700 244.307 C 317.837 244.250,318.561 244.196,318.950 244.068 C 319.225 243.977,320.058 243.787,320.800 243.645 C 321.543 243.504,322.555 243.280,323.050 243.147 C 323.545 243.014,324.490 242.858,325.150 242.800 C 326.234 242.706,326.435 242.656,327.236 242.281 C 328.009 241.920,328.246 241.858,329.086 241.797 C 329.781 241.747,330.217 241.655,330.650 241.470 C 331.268 241.205,332.256 241.002,332.938 241.001 C 333.151 241.000,333.714 240.845,334.188 240.655 C 334.663 240.465,335.418 240.224,335.865 240.120 C 336.345 240.008,336.898 239.795,337.214 239.599 C 337.509 239.417,338.366 239.011,339.120 238.697 C 339.873 238.382,340.761 237.939,341.093 237.712 C 341.455 237.466,341.813 237.300,341.984 237.300 C 342.142 237.300,342.423 237.188,342.610 237.052 C 343.321 236.532,343.557 236.401,343.782 236.400 C 344.236 236.400,345.519 235.891,347.173 235.056 C 350.259 233.498,352.114 232.934,354.900 232.707 C 355.533 232.656,356.129 232.583,356.225 232.546 C 356.878 232.294,355.772 230.603,353.284 228.050 C 351.734 226.459,350.134 224.097,349.308 222.178 C 348.872 221.165,348.489 220.661,347.963 220.406 C 347.665 220.262,347.428 220.036,347.196 219.674 C 347.011 219.386,346.427 218.722,345.899 218.200 C 344.696 217.010,344.146 216.316,343.800 215.548 C 343.449 214.768,343.050 214.431,341.731 213.799 C 340.548 213.231,338.968 211.801,338.050 210.465 C 337.718 209.981,337.557 209.846,337.098 209.662 C 336.268 209.330,335.700 208.895,334.833 207.928 C 332.867 205.733,332.264 205.339,326.318 202.356 C 320.390 199.381,320.250 199.282,319.719 197.681 L 319.398 196.713 319.382 194.231 C 319.363 191.493,319.366 191.473,320.023 190.160 C 321.171 187.861,322.851 187.186,325.350 188.019 C 325.955 188.221,326.874 188.504,327.392 188.649 C 328.710 189.019,329.431 189.370,330.418 190.123 C 330.937 190.519,331.935 191.109,332.964 191.629 C 337.207 193.772,340.971 196.932,341.438 198.743 C 341.522 199.072,341.696 199.442,341.828 199.574 L 342.066 199.812 342.438 199.359 C 342.642 199.110,342.900 198.691,343.012 198.428 C 343.123 198.165,343.346 197.674,343.507 197.338 C 343.899 196.518,343.888 196.198,343.450 195.713 C 343.221 195.460,343.100 195.226,343.100 195.038 C 343.097 193.374,341.832 190.291,337.013 180.200 C 336.291 178.688,335.700 177.365,335.700 177.262 C 335.700 177.158,335.613 176.932,335.506 176.760 C 335.399 176.587,335.082 175.909,334.802 175.254 C 333.957 173.280,333.416 172.546,332.351 171.928 C 331.967 171.704,331.772 171.494,331.499 171.011 C 330.130 168.590,328.007 167.300,325.388 167.300 L 324.319 167.300 323.899 166.949 C 323.407 166.538,323.361 166.526,322.030 166.466 C 321.326 166.434,320.907 166.365,320.680 166.245 C 319.456 165.597,319.767 165.647,317.200 165.679 C 315.400 165.702,314.684 165.674,314.138 165.559 C 313.747 165.476,312.712 165.339,311.838 165.254 C 310.965 165.169,309.845 165.032,309.350 164.950 C 308.145 164.750,300.446 164.739,299.894 164.936 M279.185 186.889 C 279.490 187.082,278.819 187.700,278.305 187.700 C 277.983 187.700,278.070 187.479,278.529 187.127 C 278.996 186.768,278.995 186.768,279.185 186.889 M276.757 187.350 C 277.076 187.594,277.320 187.700,277.561 187.700 C 278.080 187.700,278.086 187.920,277.586 188.570 C 276.530 189.944,276.280 190.150,275.671 190.150 C 274.541 190.150,274.408 189.609,275.303 188.647 C 275.922 187.982,276.100 187.668,276.100 187.243 C 276.100 186.917,276.214 186.936,276.757 187.350 M273.400 190.698 C 273.612 190.833,273.163 191.272,272.725 191.360 C 272.265 191.452,272.291 191.181,272.773 190.854 C 273.194 190.568,273.194 190.568,273.400 190.698 M305.515 194.625 C 305.401 194.739,305.171 194.628,305.252 194.497 C 305.282 194.449,305.375 194.435,305.460 194.468 C 305.560 194.506,305.579 194.561,305.515 194.625 M306.757 195.889 C 306.549 196.225,305.910 195.755,306.097 195.406 L 306.221 195.175 306.523 195.477 C 306.689 195.643,306.794 195.829,306.757 195.889 M307.719 197.111 C 308.031 197.481,308.142 197.695,308.120 197.886 C 308.104 198.031,308.083 198.229,308.074 198.325 C 308.025 198.833,307.490 198.130,307.347 197.370 C 307.309 197.165,307.237 196.973,307.189 196.943 C 307.071 196.870,307.075 196.600,307.194 196.600 C 307.246 196.600,307.482 196.830,307.719 197.111 M308.600 198.638 C 308.600 198.693,308.534 198.651,308.453 198.544 C 308.372 198.437,308.306 198.305,308.306 198.250 C 308.306 198.195,308.372 198.237,308.453 198.344 C 308.534 198.451,308.600 198.583,308.600 198.638 M308.967 199.100 C 309.083 199.100,309.085 199.075,308.979 198.960 C 308.908 198.884,308.816 198.841,308.775 198.866 C 308.734 198.891,308.700 198.864,308.700 198.806 C 308.700 198.748,308.764 198.700,308.843 198.700 C 309.050 198.700,309.420 199.212,309.365 199.421 C 309.335 199.539,309.358 199.575,309.434 199.528 C 309.947 199.206,310.200 199.578,310.200 200.653 C 310.200 201.431,310.084 201.550,309.416 201.462 C 308.942 201.399,308.299 201.697,308.054 202.093 C 308.018 202.152,307.896 202.200,307.784 202.200 C 307.672 202.200,307.454 202.335,307.300 202.500 C 307.146 202.665,306.961 202.800,306.890 202.800 C 306.818 202.800,306.926 202.629,307.130 202.421 C 307.333 202.212,307.500 201.990,307.500 201.926 C 307.500 201.862,307.846 201.378,308.269 200.849 C 309.155 199.741,309.217 199.539,308.730 199.335 C 308.544 199.258,308.417 199.153,308.448 199.104 C 308.478 199.054,308.458 198.986,308.402 198.951 C 308.346 198.916,308.300 198.843,308.300 198.787 C 308.300 198.731,308.419 198.779,308.563 198.893 C 308.708 199.007,308.890 199.100,308.967 199.100 M311.088 202.163 C 311.333 202.334,311.900 203.426,311.900 203.725 C 311.900 203.821,311.939 203.900,311.987 203.900 C 312.189 203.900,312.800 204.829,312.687 204.966 C 312.447 205.255,311.800 204.625,311.800 204.102 C 311.800 203.991,311.735 203.900,311.655 203.900 C 311.392 203.900,310.600 202.817,310.600 202.457 C 310.600 201.967,310.712 201.900,311.088 202.163 M306.791 202.839 C 306.961 203.044,306.068 203.561,305.771 203.428 C 305.578 203.342,305.595 203.314,306.007 203.022 C 306.507 202.669,306.626 202.641,306.791 202.839 M270.772 203.843 C 271.672 204.760,271.692 204.914,271.053 205.940 C 269.771 207.997,269.303 207.801,269.338 205.225 C 269.373 202.699,269.515 202.561,270.772 203.843 M266.837 203.825 C 267.013 204.481,266.794 206.000,266.524 206.000 C 265.802 206.000,265.390 205.192,265.785 204.550 C 266.269 203.762,266.734 203.441,266.837 203.825 M275.810 207.515 C 275.997 207.578,276.412 207.825,276.733 208.063 C 277.053 208.302,277.503 208.550,277.733 208.616 C 278.970 208.968,278.894 209.814,277.449 211.773 C 276.253 213.395,276.287 213.417,275.664 210.573 C 275.191 208.413,275.097 207.558,275.325 207.466 C 275.394 207.438,275.455 207.412,275.460 207.408 C 275.466 207.404,275.623 207.452,275.810 207.515 M272.392 209.357 C 272.585 209.639,272.649 209.899,272.705 210.631 C 272.745 211.136,272.836 211.677,272.908 211.832 C 273.036 212.108,272.944 212.293,272.677 212.298 C 272.551 212.301,271.100 210.500,271.100 210.341 C 271.100 209.980,271.790 208.999,272.044 209.001 C 272.102 209.001,272.259 209.161,272.392 209.357 M313.342 213.161 C 313.695 213.296,313.437 214.013,312.938 214.280 C 312.576 214.473,311.601 214.312,311.476 214.038 C 311.321 213.696,311.529 213.500,312.047 213.500 C 312.342 213.500,312.523 213.440,312.650 213.300 C 312.834 213.097,313.057 213.052,313.342 213.161 M284.219 213.636 C 284.621 213.821,285.126 214.115,285.342 214.289 C 285.557 214.462,285.827 214.622,285.942 214.644 C 286.056 214.665,286.372 214.720,286.643 214.766 C 287.276 214.874,287.288 214.952,286.760 215.525 C 286.382 215.935,286.269 216.000,285.933 216.000 C 285.425 216.000,285.187 216.180,284.744 216.896 C 284.433 217.401,284.061 217.700,283.746 217.700 C 283.659 217.700,283.567 217.257,283.539 216.704 C 283.521 216.349,283.412 215.656,283.297 215.163 C 283.093 214.296,283.093 214.094,283.298 213.554 C 283.418 213.241,283.347 213.234,284.219 213.636 M279.395 214.097 C 279.663 214.241,279.720 214.447,279.799 215.550 C 279.861 216.424,279.916 216.641,280.235 217.273 C 280.725 218.243,280.624 218.838,280.025 218.512 C 279.634 218.299,277.700 216.224,277.700 216.017 C 277.700 215.850,279.052 214.011,279.182 214.002 C 279.199 214.001,279.295 214.044,279.395 214.097 M305.889 214.991 C 306.002 215.062,305.963 215.232,305.676 215.914 C 305.483 216.374,305.200 217.207,305.048 217.766 C 304.778 218.756,304.613 219.000,304.211 219.000 C 304.071 219.000,303.888 218.478,303.645 217.379 C 303.515 216.789,303.337 216.169,303.251 216.002 C 302.933 215.386,303.375 215.080,304.468 215.161 C 304.960 215.197,305.220 215.170,305.400 215.065 C 305.710 214.885,305.719 214.883,305.889 214.991 M297.160 215.308 C 297.382 215.492,297.328 215.674,296.916 216.127 C 296.705 216.360,296.350 216.820,296.127 217.150 C 295.677 217.814,295.292 218.204,294.873 218.417 C 294.720 218.495,294.518 218.714,294.423 218.904 C 294.168 219.414,293.559 219.424,293.533 218.919 C 293.524 218.737,293.446 218.410,293.358 218.192 C 293.149 217.668,293.159 217.380,293.397 217.076 C 293.620 216.793,293.535 216.660,292.975 216.421 C 292.733 216.318,292.700 216.250,292.700 215.856 C 292.700 215.289,293.210 215.045,293.779 215.339 C 294.189 215.551,294.571 215.536,295.000 215.293 C 295.393 215.070,296.885 215.080,297.160 215.308 M301.041 218.524 L 301.608 219.737 301.401 219.943 C 301.229 220.115,301.023 220.160,300.172 220.210 C 299.494 220.250,299.026 220.331,298.780 220.452 C 298.371 220.651,298.100 220.549,298.100 220.195 C 298.100 219.965,298.572 219.400,298.764 219.400 C 299.342 219.400,299.800 218.763,299.800 217.959 C 299.800 217.495,300.068 217.156,300.348 217.263 C 300.417 217.290,300.729 217.857,301.041 218.524 M289.775 217.925 C 290.427 219.929,290.342 220.200,289.062 220.200 C 287.163 220.200,286.591 220.010,287.319 219.620 C 287.844 219.340,288.068 219.062,288.236 218.484 C 288.402 217.913,288.546 217.733,289.050 217.467 C 289.509 217.224,289.557 217.254,289.775 217.925 " stroke="none" fill="#000000" fill-rule="evenodd"></path></g></svg>