<svg id="Слой_1" data-name="Слой 1" xmlns="http://www.w3.org/2000/svg" viewBox="0 0 992.3 1000"><path d="M644.05,585.86c96-53.36,161-155.73,161-273.39C805,139.94,665.21,0,492.57,0S180.09,139.94,180.09,312.47c0,117.66,65,220,161,273.39C158.12,644,20.82,804.48-3.58,1000H59.5C89.87,788,272.13,625,492.57,625s402.79,163,433.07,375h63.08C964.32,804.48,827,644,644.05,585.86ZM242.57,312.47c0-138.11,111.89-250,250-250s250,111.89,250,250-111.89,250-250,250S242.57,450.59,242.57,312.47Z" transform="translate(3.58)"/></svg>