<svg id="Слой_2" data-name="Слой 2" xmlns="http://www.w3.org/2000/svg" viewBox="0 0 996.05 1001.92"><path d="M999.18,369.46a28.09,28.09,0,0,0-55.85,0h-.18V857.19A81.26,81.26,0,0,1,862,938.37H140.69a81.26,81.26,0,0,1-81.18-81.18V130.05a81.27,81.27,0,0,1,81.18-81.19l484.22,0a28.07,28.07,0,0,0,0-56.12v0H140.69C64.93-7.34,3.31,54.29,3.31,130V857.19c0,75.75,61.63,137.38,137.38,137.38H862c75.76,0,137.38-61.63,137.38-137.38V369.46ZM275.44,663.78l-.13.52c-2.3,9.76-4.28,28,8.31,40.59,7.8,7.82,17.79,10,26.57,10a62.47,62.47,0,0,0,14-1.69L477.66,672.7,966.88,183.48a90.55,90.55,0,0,0,0-128L933,21.57a90.66,90.66,0,0,0-128.06,0L315.71,510.83l-40.27,153ZM360.83,557l70.69,70.68-95.06,24.37,24.37-95Zm33.83-45.66L777,129l82.42,82.43L477.09,593.78l-82.43-82.43Zm498.62-450,33.85,33.86a34.38,34.38,0,0,1,0,48.57l-28,28L816.74,89.28l28-28A34.4,34.4,0,0,1,893.28,61.31Z" transform="translate(-3.31 7.34)"/></svg>