<?xml version='1.0' encoding='utf-8'?>
<!DOCTYPE svg PUBLIC '-//W3C//DTD SVG 1.1//EN' 'http://www.w3.org/Graphics/SVG/1.1/DTD/svg11.dtd'>
<svg version="1.1" xmlns="http://www.w3.org/2000/svg" viewBox="0 0 512 512" xmlns:xlink="http://www.w3.org/1999/xlink" enable-background="new 0 0 512 512">
  <g>
    <path d="m448.1,372.1c-76,4-151.3-34.2-190.8-104.9-39.1-69.9-32.7-152.7 9.6-214.6 0.4-0.6 0.8-1.2 1.2-1.8 11.9-17.1-2.2-40.3-22.9-37.6-0.2,0-0.4,0.1-0.6,0.1-29,3.9-57.9,13.1-85.1,27.9-119.6,65-163.8,216.9-97.5,335.4 66.4,118.7 216.9,161.3 336.2,95.2 28.7-15.9 52.9-36.6 72.3-60.5 0.1-0.2 0.3-0.3 0.4-0.5 13.1-16.3 0.4-40.3-20.5-38.9-0.8,0.1-1.5,0.1-2.3,0.2zm-70.1,63.8c-99.3,55-224.6,19.5-279.8-79.3s-19.6-223.5 79.7-278.5c11.6-6.4 23.6-11.6 35.7-15.6-32.8,69.3-32.8,152.7 7.5,224.7 40.8,72.9 113.4,117.1 190.9,125-10.3,8.9-21.6,16.8-34,23.7z"/>
  </g>
</svg>
