<svg id="Слой_1" data-name="Слой 1" xmlns="http://www.w3.org/2000/svg" viewBox="0 0 6848.79 3900"><defs><style>.cls-1{fill:#b22234;}.cls-2{stroke:#fff;stroke-width:300px;}.cls-3{fill:#3c3b6e;}.cls-4{fill:#fff;}</style></defs><rect class="cls-1" width="6848.79" height="3900"/><path class="cls-2" d="M0,450H6848.79m0,600H0m0,600H6848.79m0,600H0m0,600H6848.79m0,600H0"/><rect class="cls-3" width="2964" height="2100"/><g id="s18"><g id="s9"><g id="s5"><g id="s4"><path id="s" class="cls-4" d="M247,90l70.53,217.08L132.87,172.92H361.13L176.47,307.08Z"/><path id="s-2" data-name="s" class="cls-4" d="M247,510l70.53,217.08L132.87,592.92H361.13L176.47,727.08Z"/><path id="s-3" data-name="s" class="cls-4" d="M247,930l70.53,217.08L132.87,1012.92H361.13L176.47,1147.08Z"/><path id="s-4" data-name="s" class="cls-4" d="M247,1350l70.53,217.08L132.87,1432.92H361.13L176.47,1567.08Z"/></g><path id="s-5" data-name="s" class="cls-4" d="M247,1770l70.53,217.08L132.87,1852.92H361.13L176.47,1987.08Z"/></g><g id="s4-2" data-name="s4"><path id="s-6" data-name="s" class="cls-4" d="M494,300l70.53,217.08L379.87,382.92H608.13L423.47,517.08Z"/><path id="s-7" data-name="s" class="cls-4" d="M494,720l70.53,217.08L379.87,802.92H608.13L423.47,937.08Z"/><path id="s-8" data-name="s" class="cls-4" d="M494,1140l70.53,217.08L379.87,1222.92H608.13L423.47,1357.08Z"/><path id="s-9" data-name="s" class="cls-4" d="M494,1560l70.53,217.08L379.87,1642.92H608.13L423.47,1777.08Z"/></g></g><g id="s9-2" data-name="s9"><g id="s5-2" data-name="s5"><g id="s4-3" data-name="s4"><path id="s-10" data-name="s" class="cls-4" d="M741,90l70.53,217.08L626.87,172.92H855.13L670.47,307.08Z"/><path id="s-11" data-name="s" class="cls-4" d="M741,510l70.53,217.08L626.87,592.92H855.13L670.47,727.08Z"/><path id="s-12" data-name="s" class="cls-4" d="M741,930l70.53,217.08L626.87,1012.92H855.13L670.47,1147.08Z"/><path id="s-13" data-name="s" class="cls-4" d="M741,1350l70.53,217.08L626.87,1432.92H855.13L670.47,1567.08Z"/></g><path id="s-14" data-name="s" class="cls-4" d="M741,1770l70.53,217.08L626.87,1852.92H855.13L670.47,1987.08Z"/></g><g id="s4-4" data-name="s4"><path id="s-15" data-name="s" class="cls-4" d="M988,300l70.53,217.08L873.87,382.92h228.26L917.47,517.08Z"/><path id="s-16" data-name="s" class="cls-4" d="M988,720l70.53,217.08L873.87,802.92h228.26L917.47,937.08Z"/><path id="s-17" data-name="s" class="cls-4" d="M988,1140l70.53,217.08L873.87,1222.92h228.26L917.47,1357.08Z"/><path id="s-18" data-name="s" class="cls-4" d="M988,1560l70.53,217.08L873.87,1642.92h228.26L917.47,1777.08Z"/></g></g></g><g id="s18-2" data-name="s18"><g id="s9-3" data-name="s9"><g id="s5-3" data-name="s5"><g id="s4-5" data-name="s4"><path id="s-19" data-name="s" class="cls-4" d="M1235,90l70.53,217.08L1120.87,172.92h228.26L1164.47,307.08Z"/><path id="s-20" data-name="s" class="cls-4" d="M1235,510l70.53,217.08L1120.87,592.92h228.26L1164.47,727.08Z"/><path id="s-21" data-name="s" class="cls-4" d="M1235,930l70.53,217.08-184.66-134.16h228.26l-184.66,134.16Z"/><path id="s-22" data-name="s" class="cls-4" d="M1235,1350l70.53,217.08-184.66-134.16h228.26l-184.66,134.16Z"/></g><path id="s-23" data-name="s" class="cls-4" d="M1235,1770l70.53,217.08-184.66-134.16h228.26l-184.66,134.16Z"/></g><g id="s4-6" data-name="s4"><path id="s-24" data-name="s" class="cls-4" d="M1482,300l70.53,217.08L1367.87,382.92h228.26L1411.47,517.08Z"/><path id="s-25" data-name="s" class="cls-4" d="M1482,720l70.53,217.08L1367.87,802.92h228.26L1411.47,937.08Z"/><path id="s-26" data-name="s" class="cls-4" d="M1482,1140l70.53,217.08-184.66-134.16h228.26l-184.66,134.16Z"/><path id="s-27" data-name="s" class="cls-4" d="M1482,1560l70.53,217.08-184.66-134.16h228.26l-184.66,134.16Z"/></g></g><g id="s9-4" data-name="s9"><g id="s5-4" data-name="s5"><g id="s4-7" data-name="s4"><path id="s-28" data-name="s" class="cls-4" d="M1729,90l70.53,217.08L1614.87,172.92h228.26L1658.47,307.08Z"/><path id="s-29" data-name="s" class="cls-4" d="M1729,510l70.53,217.08L1614.87,592.92h228.26L1658.47,727.08Z"/><path id="s-30" data-name="s" class="cls-4" d="M1729,930l70.53,217.08-184.66-134.16h228.26l-184.66,134.16Z"/><path id="s-31" data-name="s" class="cls-4" d="M1729,1350l70.53,217.08-184.66-134.16h228.26l-184.66,134.16Z"/></g><path id="s-32" data-name="s" class="cls-4" d="M1729,1770l70.53,217.08-184.66-134.16h228.26l-184.66,134.16Z"/></g><g id="s4-8" data-name="s4"><path id="s-33" data-name="s" class="cls-4" d="M1976,300l70.53,217.08L1861.87,382.92h228.26L1905.47,517.08Z"/><path id="s-34" data-name="s" class="cls-4" d="M1976,720l70.53,217.08L1861.87,802.92h228.26L1905.47,937.08Z"/><path id="s-35" data-name="s" class="cls-4" d="M1976,1140l70.53,217.08-184.66-134.16h228.26l-184.66,134.16Z"/><path id="s-36" data-name="s" class="cls-4" d="M1976,1560l70.53,217.08-184.66-134.16h228.26l-184.66,134.16Z"/></g></g></g><g id="s9-5" data-name="s9"><g id="s5-5" data-name="s5"><g id="s4-9" data-name="s4"><path id="s-37" data-name="s" class="cls-4" d="M2223,90l70.53,217.08L2108.87,172.92h228.26L2152.47,307.08Z"/><path id="s-38" data-name="s" class="cls-4" d="M2223,510l70.53,217.08L2108.87,592.92h228.26L2152.47,727.08Z"/><path id="s-39" data-name="s" class="cls-4" d="M2223,930l70.53,217.08-184.66-134.16h228.26l-184.66,134.16Z"/><path id="s-40" data-name="s" class="cls-4" d="M2223,1350l70.53,217.08-184.66-134.16h228.26l-184.66,134.16Z"/></g><path id="s-41" data-name="s" class="cls-4" d="M2223,1770l70.53,217.08-184.66-134.16h228.26l-184.66,134.16Z"/></g><g id="s4-10" data-name="s4"><path id="s-42" data-name="s" class="cls-4" d="M2470,300l70.53,217.08L2355.87,382.92h228.26L2399.47,517.08Z"/><path id="s-43" data-name="s" class="cls-4" d="M2470,720l70.53,217.08L2355.87,802.92h228.26L2399.47,937.08Z"/><path id="s-44" data-name="s" class="cls-4" d="M2470,1140l70.53,217.08-184.66-134.16h228.26l-184.66,134.16Z"/><path id="s-45" data-name="s" class="cls-4" d="M2470,1560l70.53,217.08-184.66-134.16h228.26l-184.66,134.16Z"/></g></g><g id="s5-6" data-name="s5"><g id="s4-11" data-name="s4"><path id="s-46" data-name="s" class="cls-4" d="M2717,90l70.53,217.08L2602.87,172.92h228.26L2646.47,307.08Z"/><path id="s-47" data-name="s" class="cls-4" d="M2717,510l70.53,217.08L2602.87,592.92h228.26L2646.47,727.08Z"/><path id="s-48" data-name="s" class="cls-4" d="M2717,930l70.53,217.08-184.66-134.16h228.26l-184.66,134.16Z"/><path id="s-49" data-name="s" class="cls-4" d="M2717,1350l70.53,217.08-184.66-134.16h228.26l-184.66,134.16Z"/></g><path id="s-50" data-name="s" class="cls-4" d="M2717,1770l70.53,217.08-184.66-134.16h228.26l-184.66,134.16Z"/></g></svg>