<?xml version="1.0" standalone="no"?>
<!DOCTYPE svg PUBLIC "-//W3C//DTD SVG 20010904//EN"
 "http://www.w3.org/TR/2001/REC-SVG-20010904/DTD/svg10.dtd">
<svg version="1.0" xmlns="http://www.w3.org/2000/svg"
 width="1000.000000pt" height="1000.000000pt" viewBox="0 0 1000.000000 1000.000000"
 preserveAspectRatio="xMidYMid meet">
<metadata>
Created by potrace 1.11, written by Peter Selinger 2001-2013
</metadata>
<g transform="translate(0.000000,1000.000000) scale(0.100000,-0.100000)"
fill="#000000" stroke="none">
<path d="M5137 9475 c-1 -2 -56 -5 -122 -9 -66 -3 -136 -8 -155 -10 -19 -3
-62 -8 -95 -11 -33 -3 -103 -12 -155 -21 -52 -8 -105 -17 -117 -19 -160 -26
-420 -93 -633 -165 -603 -201 -1201 -563 -1660 -1005 -94 -91 -247 -251 -305
-319 -28 -32 -54 -63 -60 -70 -54 -61 -177 -225 -258 -343 -224 -328 -438
-765 -552 -1125 -20 -65 -36 -120 -36 -123 0 -2 -6 -23 -14 -46 -9 -23 -17
-51 -19 -63 -2 -12 -15 -68 -29 -126 -14 -58 -28 -121 -31 -140 -3 -19 -8 -46
-11 -60 -3 -14 -7 -36 -10 -49 -2 -13 -7 -49 -11 -80 -3 -31 -8 -58 -9 -61 -2
-3 -6 -37 -10 -75 -3 -39 -8 -81 -10 -95 -23 -138 -23 -715 -1 -837 2 -10 7
-45 10 -78 128 -1091 671 -2105 1522 -2841 214 -185 471 -369 685 -489 586
-330 1151 -515 1775 -581 32 -3 73 -8 89 -10 17 -2 140 -7 275 -10 234 -6 249
-6 328 16 232 63 388 276 376 514 -3 73 -38 199 -60 217 -8 6 -14 17 -14 24 0
28 -120 143 -187 178 -102 53 -155 63 -353 65 -96 1 -202 4 -235 7 -117 10
-228 23 -265 30 -13 3 -42 7 -65 10 -22 4 -68 13 -101 20 -34 8 -73 16 -85 19
-56 10 -259 65 -271 72 -4 3 -16 7 -25 9 -21 4 -191 66 -248 90 -99 42 -137
60 -250 117 -549 278 -1013 694 -1357 1218 -48 74 -188 316 -188 326 0 2 -18
39 -39 83 -78 161 -185 459 -222 620 -6 25 -12 53 -14 61 -31 131 -59 314 -73
470 -14 154 -5 566 14 663 2 12 6 45 10 72 4 41 22 141 49 277 14 68 102 356
130 423 7 17 25 62 40 100 79 197 236 480 375 675 555 778 1402 1297 2340
1434 78 12 158 19 209 20 l53 1 49 -120 c58 -139 48 -116 140 -338 39 -95 77
-185 84 -202 8 -16 73 -174 145 -350 73 -176 196 -475 275 -665 78 -190 186
-451 240 -580 53 -129 102 -248 110 -265 7 -16 77 -185 155 -375 78 -190 166
-401 195 -470 29 -69 77 -186 108 -260 85 -206 397 -961 412 -995 22 -52 103
-248 125 -305 12 -30 28 -71 37 -90 33 -75 42 -97 63 -150 12 -30 28 -71 37
-90 27 -62 39 -91 133 -320 50 -124 97 -238 105 -255 17 -39 45 -105 145 -350
45 -110 88 -213 96 -230 7 -16 56 -136 109 -265 104 -253 111 -269 143 -345
54 -127 252 -607 252 -611 0 -3 15 -29 34 -57 205 -322 669 -316 866 10 65
106 87 259 55 383 -10 43 -212 545 -255 635 -5 11 -59 142 -121 290 -61 149
-120 289 -130 312 -10 23 -19 44 -19 46 0 3 -63 157 -141 343 -77 187 -170
411 -206 499 -36 88 -71 174 -79 190 -7 17 -67 163 -134 325 -66 162 -127 309
-134 325 -8 17 -51 120 -96 230 -45 110 -93 224 -106 253 -13 29 -24 58 -24
65 0 7 -4 17 -8 22 -5 6 -19 37 -32 70 -13 33 -31 79 -41 101 -10 23 -39 93
-65 155 -25 63 -52 128 -59 144 -8 17 -165 397 -350 845 -186 448 -343 829
-350 845 -7 17 -19 46 -28 65 -8 19 -52 125 -97 235 -170 414 -272 661 -291
702 -10 24 -19 45 -19 48 0 2 -11 28 -24 57 -12 29 -26 61 -29 71 -13 35 -269
653 -293 705 -13 29 -24 55 -24 57 0 10 -133 323 -163 382 -69 139 -183 242
-315 284 -55 17 -96 21 -235 23 -92 1 -168 2 -170 1z"/>
</g>
</svg>
