<?xml version="1.0" standalone="no"?>
<!DOCTYPE svg PUBLIC "-//W3C//DTD SVG 20010904//EN"
 "http://www.w3.org/TR/2001/REC-SVG-20010904/DTD/svg10.dtd">
<svg version="1.0" xmlns="http://www.w3.org/2000/svg"
 width="1080.000000pt" height="1080.000000pt" viewBox="0 0 1080.000000 1080.000000"
 preserveAspectRatio="xMidYMid meet">
<metadata>
Created by potrace 1.14, written by Peter Selinger 2001-2017
</metadata>
<g transform="translate(0.000000,1080.000000) scale(0.100000,-0.100000)"
fill="#000000" stroke="none">
<path d="M5627 10234 c-1 -1 -72 -4 -158 -8 -86 -3 -163 -8 -170 -10 -8 -3
-50 -7 -94 -11 -92 -7 -370 -49 -461 -70 -34 -8 -73 -16 -85 -19 -47 -9 -186
-44 -274 -70 -618 -177 -1196 -479 -1715 -894 -52 -42 -102 -83 -110 -92 -8
-8 -50 -46 -94 -85 -500 -441 -973 -1105 -1218 -1709 -11 -28 -24 -60 -29 -71
-106 -239 -251 -772 -285 -1045 -2 -19 -6 -44 -8 -55 -3 -11 -8 -49 -11 -85
-4 -36 -8 -75 -10 -87 -20 -128 -27 -607 -12 -828 5 -65 10 -122 12 -125 2 -3
6 -38 9 -79 4 -41 8 -77 10 -80 2 -3 7 -31 10 -61 7 -64 13 -98 26 -160 5 -25
12 -56 14 -70 35 -214 174 -658 292 -927 77 -178 206 -433 254 -503 9 -14 20
-33 23 -43 16 -44 342 -517 377 -547 3 -3 28 -32 54 -65 210 -261 539 -578
820 -789 141 -105 453 -316 469 -316 3 0 35 -18 72 -40 107 -66 370 -195 515
-254 89 -37 101 -42 130 -54 74 -31 279 -100 420 -140 195 -56 471 -115 640
-136 25 -4 56 -8 70 -10 45 -8 203 -22 336 -31 90 -6 425 -6 459 0 158 29 311
134 390 270 58 98 85 258 64 371 -38 206 -203 382 -404 434 -29 7 -127 14
-230 16 -236 3 -336 11 -535 40 -171 24 -213 31 -242 40 -10 3 -30 7 -45 10
-71 13 -301 78 -398 113 -33 12 -80 29 -105 38 -121 42 -380 164 -531 250
-342 196 -708 493 -956 778 -28 33 -63 74 -78 90 -96 111 -276 368 -370 530
-160 277 -331 699 -380 938 -2 10 -6 26 -9 35 -3 9 -7 28 -10 42 -2 14 -14 70
-25 125 -18 89 -25 134 -36 225 -4 26 -12 117 -20 210 -3 30 -5 127 -5 215 -1
247 11 395 51 625 41 236 130 543 224 770 30 73 142 304 177 365 62 109 87
150 164 265 197 296 417 541 709 792 106 90 347 268 365 268 5 0 10 5 10 10 0
6 5 10 12 10 6 0 19 6 27 14 39 35 322 187 476 257 143 64 417 164 505 184 8
2 42 11 75 20 79 21 269 62 325 69 46 6 82 12 135 21 28 5 134 15 199 18 27 2
31 -3 63 -78 18 -44 37 -89 42 -100 29 -65 43 -98 71 -170 18 -44 40 -99 51
-122 10 -23 19 -44 19 -47 0 -3 14 -35 30 -71 17 -36 30 -68 30 -71 0 -3 16
-42 35 -87 41 -97 218 -525 282 -682 24 -60 51 -123 58 -140 7 -16 50 -120 95
-230 45 -110 93 -225 106 -255 13 -30 96 -230 185 -445 88 -214 207 -502 264
-640 57 -137 154 -371 215 -520 61 -148 115 -279 120 -290 5 -11 43 -103 85
-205 78 -189 133 -321 166 -399 11 -24 19 -50 19 -57 0 -8 5 -14 10 -14 6 0
10 -6 10 -13 0 -11 100 -261 169 -422 5 -11 16 -36 24 -55 8 -19 117 -282 242
-585 124 -302 233 -564 240 -580 8 -17 28 -66 46 -110 17 -44 39 -98 49 -120
10 -22 39 -92 65 -155 25 -63 69 -169 97 -235 57 -137 71 -171 238 -575 362
-877 344 -837 413 -910 90 -97 198 -156 322 -175 182 -29 358 34 488 174 71
77 105 144 134 261 2 8 5 47 7 86 6 104 -16 189 -85 340 -10 24 -19 46 -19 49
0 7 -5 19 -48 115 -11 25 -32 77 -47 115 -15 39 -35 88 -45 110 -10 22 -55
130 -100 240 -45 110 -99 241 -120 290 -21 50 -63 151 -93 225 -31 74 -123
297 -205 495 -82 198 -186 450 -232 560 -45 110 -88 214 -95 230 -7 17 -61
147 -120 290 -59 143 -113 274 -120 290 -7 17 -23 55 -35 85 -12 30 -28 69
-35 85 -8 17 -30 71 -50 120 -39 94 -233 563 -290 700 -19 44 -89 213 -155
375 -108 262 -270 652 -305 735 -7 17 -18 44 -25 60 -6 17 -120 291 -252 610
-132 319 -255 616 -273 660 -60 147 -186 450 -200 480 -7 17 -28 66 -45 110
-17 44 -38 94 -45 110 -19 44 -200 481 -224 541 -11 28 -29 71 -39 95 -11 24
-76 179 -143 344 -134 327 -196 446 -267 520 -83 85 -204 147 -315 161 -39 5
-266 12 -270 8z"/>
</g>
</svg>
